<svg width="669" height="145" viewBox="0 0 669 145" fill="none" xmlns="http://www.w3.org/2000/svg">
<path d="M38.1818 116H8.60795V28.7273H38.7784C47.4432 28.7273 54.8864 30.4744 61.108 33.9688C67.358 37.4347 72.1591 42.4205 75.5114 48.9261C78.8636 55.4318 80.5398 63.2159 80.5398 72.2784C80.5398 81.3693 78.8494 89.1818 75.4688 95.7159C72.1165 102.25 67.2727 107.264 60.9375 110.759C54.6307 114.253 47.0455 116 38.1818 116ZM24.4176 102.321H37.4148C43.4943 102.321 48.5653 101.213 52.6278 98.9972C56.6903 96.7528 59.7443 93.4148 61.7898 88.983C63.8352 84.5227 64.858 78.9545 64.858 72.2784C64.858 65.6023 63.8352 60.0625 61.7898 55.6591C59.7443 51.2273 56.7188 47.9176 52.7131 45.7301C48.7358 43.5142 43.7926 42.4062 37.8835 42.4062H24.4176V102.321ZM116.057 117.278C109.494 117.278 103.826 115.915 99.0537 113.188C94.3094 110.432 90.6588 106.54 88.102 101.511C85.5452 96.4545 84.2668 90.5028 84.2668 83.6562C84.2668 76.9233 85.5452 71.0142 88.102 65.929C90.6872 60.8153 94.2952 56.8381 98.9259 53.9972C103.557 51.1278 108.997 49.6932 115.247 49.6932C119.281 49.6932 123.088 50.3466 126.667 51.6534C130.275 52.9318 133.457 54.9205 136.213 57.6193C138.997 60.3182 141.184 63.7557 142.775 67.9318C144.366 72.0795 145.162 77.0227 145.162 82.7614V87.4915H91.5111V77.0938H130.375C130.346 74.1392 129.707 71.5114 128.457 69.2102C127.207 66.8807 125.46 65.0483 123.216 63.7131C121 62.3778 118.414 61.7102 115.46 61.7102C112.307 61.7102 109.537 62.4773 107.15 64.0114C104.764 65.517 102.903 67.5057 101.568 69.9773C100.261 72.4205 99.5935 75.1051 99.5651 78.0312V87.108C99.5651 90.9148 100.261 94.1818 101.653 96.9091C103.045 99.608 104.991 101.682 107.491 103.131C109.991 104.551 112.917 105.261 116.27 105.261C118.514 105.261 120.545 104.949 122.363 104.324C124.182 103.67 125.758 102.719 127.093 101.469C128.429 100.219 129.437 98.6705 130.119 96.8239L144.522 98.4432C143.613 102.25 141.88 105.574 139.324 108.415C136.795 111.227 133.557 113.415 129.608 114.977C125.659 116.511 121.142 117.278 116.057 117.278ZM163.569 116L145.075 50.5455H160.799L172.305 96.5682H172.901L184.663 50.5455H200.217L211.978 96.3125H212.617L223.953 50.5455H239.72L221.183 116H205.117L192.845 71.767H191.95L179.677 116H163.569ZM294.423 67.8466L280.361 69.3807C279.963 67.9602 279.267 66.625 278.273 65.375C277.307 64.125 276 63.1165 274.352 62.3494C272.704 61.5824 270.687 61.1989 268.301 61.1989C265.091 61.1989 262.392 61.8949 260.204 63.2869C258.045 64.679 256.98 66.483 257.008 68.6989C256.98 70.6023 257.676 72.1506 259.096 73.3438C260.545 74.5369 262.932 75.517 266.256 76.2841L277.42 78.6705C283.614 80.0057 288.216 82.1222 291.227 85.0199C294.267 87.9176 295.801 91.7102 295.829 96.3977C295.801 100.517 294.594 104.153 292.207 107.307C289.849 110.432 286.568 112.875 282.364 114.636C278.159 116.398 273.329 117.278 267.875 117.278C259.864 117.278 253.415 115.602 248.528 112.25C243.642 108.869 240.73 104.168 239.792 98.1449L254.835 96.696C255.517 99.6506 256.966 101.881 259.182 103.386C261.398 104.892 264.281 105.645 267.832 105.645C271.497 105.645 274.437 104.892 276.653 103.386C278.898 101.881 280.02 100.02 280.02 97.804C280.02 95.929 279.295 94.3807 277.846 93.1591C276.426 91.9375 274.21 91 271.199 90.3466L260.034 88.0028C253.756 86.696 249.111 84.4943 246.099 81.3977C243.088 78.2727 241.596 74.3239 241.625 69.5511C241.596 65.517 242.69 62.0227 244.906 59.0682C247.15 56.0852 250.261 53.7841 254.239 52.1648C258.244 50.517 262.861 49.6932 268.088 49.6932C275.758 49.6932 281.795 51.3267 286.199 54.5938C290.631 57.8608 293.372 62.2784 294.423 67.8466Z" fill="black"/>
<path d="M315.815 116H298.94L329.665 28.7273H349.182L379.949 116H363.074L339.764 46.625H339.082L315.815 116ZM316.369 81.7812H362.392V94.4801H316.369V81.7812ZM413.06 117.151C407.918 117.151 403.315 115.83 399.253 113.188C395.19 110.545 391.98 106.71 389.622 101.682C387.264 96.6534 386.085 90.5455 386.085 83.358C386.085 76.0852 387.278 69.9489 389.665 64.9489C392.08 59.9205 395.332 56.1278 399.423 53.571C403.514 50.9858 408.074 49.6932 413.102 49.6932C416.938 49.6932 420.091 50.3466 422.562 51.6534C425.034 52.9318 426.994 54.4801 428.443 56.2983C429.892 58.0881 431.014 59.7784 431.81 61.3693H432.449V28.7273H447.918V116H432.747V105.688H431.81C431.014 107.278 429.864 108.969 428.358 110.759C426.852 112.52 424.864 114.026 422.392 115.276C419.92 116.526 416.81 117.151 413.06 117.151ZM417.364 104.494C420.631 104.494 423.415 103.614 425.716 101.852C428.017 100.062 429.764 97.5767 430.957 94.3949C432.151 91.2131 432.747 87.5057 432.747 83.2727C432.747 79.0398 432.151 75.3608 430.957 72.2358C429.793 69.1108 428.06 66.6818 425.759 64.9489C423.486 63.2159 420.688 62.3494 417.364 62.3494C413.926 62.3494 411.057 63.2443 408.756 65.0341C406.455 66.8239 404.722 69.2955 403.557 72.4489C402.392 75.6023 401.81 79.2102 401.81 83.2727C401.81 87.3636 402.392 91.0142 403.557 94.2244C404.75 97.4062 406.497 99.9205 408.798 101.767C411.128 103.585 413.983 104.494 417.364 104.494ZM464.356 116V50.5455H479.1V61.6676H479.867C481.231 57.9176 483.489 54.9915 486.643 52.8892C489.796 50.7585 493.56 49.6932 497.935 49.6932C502.367 49.6932 506.103 50.7727 509.143 52.9318C512.211 55.0625 514.37 57.9744 515.62 61.6676H516.302C517.751 58.0312 520.194 55.1335 523.631 52.9744C527.097 50.7869 531.202 49.6932 535.947 49.6932C541.969 49.6932 546.884 51.5966 550.691 55.4034C554.498 59.2102 556.401 64.7642 556.401 72.0653V116H540.933V74.4517C540.933 70.3892 539.853 67.4205 537.694 65.5455C535.535 63.642 532.893 62.6903 529.768 62.6903C526.046 62.6903 523.134 63.8551 521.032 66.1847C518.958 68.4858 517.921 71.483 517.921 75.1761V116H502.793V73.8125C502.793 70.4318 501.771 67.733 499.725 65.7159C497.708 63.6989 495.066 62.6903 491.799 62.6903C489.583 62.6903 487.566 63.2585 485.748 64.3949C483.93 65.5028 482.481 67.0795 481.401 69.125C480.322 71.142 479.782 73.5 479.782 76.1989V116H464.356ZM572.051 116V50.5455H587.477V116H572.051ZM579.807 41.2557C577.364 41.2557 575.261 40.446 573.5 38.8267C571.739 37.179 570.858 35.2045 570.858 32.9034C570.858 30.5739 571.739 28.5994 573.5 26.9801C575.261 25.3324 577.364 24.5085 579.807 24.5085C582.278 24.5085 584.381 25.3324 586.114 26.9801C587.875 28.5994 588.756 30.5739 588.756 32.9034C588.756 35.2045 587.875 37.179 586.114 38.8267C584.381 40.446 582.278 41.2557 579.807 41.2557ZM618.766 77.6477V116H603.34V50.5455H618.085V61.6676H618.852C620.357 58.0028 622.758 55.0909 626.053 52.9318C629.377 50.7727 633.482 49.6932 638.369 49.6932C642.886 49.6932 646.82 50.6591 650.173 52.5909C653.553 54.5227 656.167 57.321 658.013 60.9858C659.888 64.6506 660.812 69.0966 660.783 74.3239V116H645.357V76.7102C645.357 72.3352 644.221 68.9119 641.948 66.4403C639.704 63.9687 636.593 62.733 632.616 62.733C629.917 62.733 627.516 63.3295 625.414 64.5227C623.34 65.6875 621.707 67.3778 620.513 69.5938C619.349 71.8097 618.766 74.4943 618.766 77.6477Z" fill="#1F3BB3"/>
</svg>
